<?xml version="1.0" standalone="no"?>
<!DOCTYPE svg PUBLIC "-//W3C//DTD SVG 20010904//EN"
 "http://www.w3.org/TR/2001/REC-SVG-20010904/DTD/svg10.dtd">
<svg version="1.0" xmlns="http://www.w3.org/2000/svg"
 width="511.000000pt" height="340.000000pt" viewBox="0 0 511.000000 340.000000"
 preserveAspectRatio="xMidYMid meet">
<metadata>
Created by potrace 1.15, written by Peter Selinger 2001-2017
</metadata>
<g transform="translate(0.000000,340.000000) scale(0.100000,-0.100000)"
fill="#000000" stroke="none">
<path d="M23 3368 c5 -14 418 -1270 443 -1351 l16 -47 181 2 181 3 157 465
156 464 51 -159 c29 -88 96 -297 151 -465 l99 -305 183 0 182 0 223 680 c123
374 226 690 229 703 l6 22 -162 -2 -162 -3 -123 -375 c-68 -206 -140 -426
-160 -489 l-36 -114 -158 489 -158 489 -158 0 -157 0 -160 -478 c-88 -263
-163 -475 -167 -470 -4 4 -40 109 -80 233 -39 124 -107 336 -151 473 l-80 247
-175 0 c-137 0 -175 -3 -171 -12z"/>
<path d="M2450 2675 l0 -705 550 0 550 0 0 135 0 135 -380 0 -380 0 0 155 0
155 325 0 325 0 0 135 0 135 -325 0 -325 0 0 145 0 145 370 0 370 0 0 135 0
135 -540 0 -540 0 0 -705z"/>
<path d="M3800 2675 l0 -706 473 3 472 3 79 27 c95 32 172 83 213 141 49 70
58 103 58 217 0 94 -3 111 -27 160 -33 66 -85 119 -156 158 l-53 29 41 28 c86
59 136 177 128 301 -9 129 -72 220 -194 280 -115 56 -125 57 -596 61 l-438 4
0 -706z m729 445 c117 -22 161 -65 161 -159 0 -48 -3 -57 -38 -91 -21 -21 -55
-43 -77 -49 -23 -6 -124 -11 -237 -11 l-198 0 0 160 0 160 169 0 c92 0 192 -4
220 -10z m131 -586 c25 -12 58 -35 73 -53 22 -27 27 -42 27 -89 0 -74 -23
-112 -87 -143 -46 -23 -59 -24 -290 -27 l-243 -4 0 172 0 172 238 -4 c214 -3
241 -5 282 -24z"/>
<path d="M3219 1817 c-25 -23 -250 -228 -500 -456 -249 -228 -454 -419 -454
-426 0 -13 996 -927 1006 -923 10 5 159 173 159 180 0 3 -181 172 -402 375
l-403 368 402 365 c221 201 402 370 402 375 0 6 -36 49 -82 97 l-82 88 -46
-43z"/>
<path d="M3977 1773 c-43 -49 -77 -93 -77 -98 0 -6 180 -175 400 -375 l400
-364 -22 -22 c-13 -12 -192 -176 -398 -364 -206 -189 -376 -348 -378 -355 -5
-20 148 -186 163 -177 14 8 1005 912 1005 917 0 3 -975 892 -1001 912 -14 11
-27 0 -92 -74z"/>
<path d="M3575 1574 c-59 -9 -140 -36 -199 -66 -90 -45 -213 -172 -260 -268
-38 -79 -66 -186 -66 -259 0 -36 -6 -51 -34 -82 -39 -42 -51 -87 -43 -156 6
-52 29 -88 78 -121 29 -20 43 -23 90 -19 l55 5 29 -57 c45 -86 139 -175 232
-219 77 -36 80 -37 203 -37 147 0 202 17 303 94 203 153 266 461 144 696 -84
160 -268 275 -442 275 -222 0 -431 -169 -490 -397 -17 -66 -20 -211 -4 -266
14 -53 3 -59 -18 -11 -19 43 -24 174 -9 232 7 26 6 32 -8 32 -40 0 0 183 64
291 45 76 143 172 216 211 141 76 337 78 484 3 112 -57 241 -212 276 -333 23
-79 34 -166 21 -174 -7 -4 -7 -18 1 -46 22 -72 15 -150 -18 -221 -17 -35 -28
-66 -25 -69 2 -3 26 -7 52 -9 39 -4 55 0 83 19 43 29 80 99 80 153 0 50 -29
115 -64 142 -18 15 -26 30 -26 52 0 68 -32 189 -71 270 -31 62 -59 102 -113
156 -118 119 -236 173 -398 179 -51 3 -106 2 -123 0z m-149 -619 c15 -41 31
-72 34 -69 3 3 16 36 30 72 22 58 30 67 53 70 15 2 27 0 27 -5 0 -4 -29 -75
-63 -158 -58 -137 -66 -150 -90 -153 -32 -4 -32 -6 -7 50 l20 45 -45 103 c-25
57 -45 107 -45 111 0 5 13 9 29 9 26 0 31 -6 57 -75z m428 -13 l29 -84 31 84
c28 75 34 83 60 86 21 3 27 0 24 -10 -87 -225 -89 -229 -116 -226 -23 3 -31
16 -69 108 -23 58 -42 111 -43 118 0 9 10 12 28 10 24 -3 30 -11 56 -86z m-34
-332 l0 -30 -150 0 -150 0 0 30 0 30 150 0 150 0 0 -30z"/>
<path d="M730 1554 c-75 -20 -146 -68 -175 -118 -50 -87 -57 -139 -62 -451 -6
-395 9 -488 96 -578 26 -28 54 -43 104 -58 61 -19 86 -21 280 -17 227 5 260
11 339 63 48 32 86 107 104 204 19 110 19 612 -1 705 -30 144 -102 220 -234
250 -93 21 -372 21 -451 0z m446 -140 c75 -37 79 -52 82 -369 6 -429 -15 -544
-102 -573 -53 -17 -339 -17 -392 0 -60 20 -82 74 -95 229 -16 181 -7 603 13
651 32 73 90 88 309 84 119 -2 153 -6 185 -22z"/>
<path d="M1520 1495 l0 -65 155 0 155 0 0 -545 0 -545 90 0 90 0 0 545 0 545
155 0 155 0 0 65 0 65 -400 0 -400 0 0 -65z"/>
</g>
</svg>
