<?xml version="1.0" standalone="no"?>
<!DOCTYPE svg PUBLIC "-//W3C//DTD SVG 20010904//EN"
 "http://www.w3.org/TR/2001/REC-SVG-20010904/DTD/svg10.dtd">
<svg version="1.0" xmlns="http://www.w3.org/2000/svg"
 width="490.000000pt" height="322.000000pt" viewBox="0 0 490.000000 322.000000"
 preserveAspectRatio="xMidYMid meet">
<metadata>
Created by potrace 1.15, written by Peter Selinger 2001-2017
</metadata>
<g transform="translate(0.000000,322.000000) scale(0.100000,-0.100000)"
fill="#000000" stroke="none">
<path d="M1579 3037 c-97 -89 -487 -445 -867 -792 -381 -346 -692 -634 -692
-640 0 -12 1727 -1589 1745 -1593 11 -3 280 293 280 308 0 4 -314 294 -698
643 -383 350 -697 639 -697 642 0 3 312 291 694 640 382 348 696 638 699 643
7 10 -256 306 -275 309 -7 1 -92 -71 -189 -160z"/>
<path d="M2991 3048 c-97 -109 -132 -154 -125 -164 5 -7 306 -284 669 -615
363 -330 675 -616 693 -633 l33 -32 -701 -639 c-385 -351 -699 -643 -697 -649
8 -25 263 -305 276 -303 17 3 1749 1578 1749 1592 0 14 -1732 1590 -1749 1592
-8 1 -74 -66 -148 -149z"/>
<path d="M2275 2705 c-489 -83 -851 -497 -882 -1013 l-6 -94 -48 -49 c-48 -49
-72 -102 -85 -185 -7 -45 10 -143 32 -186 43 -84 140 -148 224 -148 42 0 120
16 120 25 0 2 -16 30 -35 62 -80 132 -99 288 -52 436 l25 77 -35 0 -36 0 7 76
c36 393 298 737 651 853 129 43 211 54 339 48 236 -11 437 -101 608 -272 153
-153 244 -330 282 -550 22 -123 21 -155 -3 -155 -18 0 -18 -3 6 -72 49 -140
29 -305 -53 -440 -19 -31 -34 -58 -34 -62 0 -3 17 -10 38 -15 207 -58 386 143
328 370 -20 75 -56 132 -108 168 -32 23 -37 31 -38 66 0 61 -27 221 -50 305
-45 163 -155 348 -281 471 -235 232 -582 339 -914 284z"/>
<path d="M2324 2329 c-346 -58 -628 -327 -720 -689 -21 -80 -29 -290 -15 -380
48 -305 235 -563 506 -695 307 -150 669 -95 936 143 112 99 215 271 264 437
32 109 44 298 26 415 -77 496 -532 847 -997 769z m-278 -699 c51 -130 53 -134
64 -105 46 125 84 222 93 233 5 6 30 12 54 12 32 0 44 -4 40 -12 -22 -54 -207
-489 -217 -510 -12 -25 -19 -28 -62 -28 l-48 0 24 48 c62 122 64 96 -29 311
l-83 192 55 -3 56 -3 53 -135z m688 118 c7 -13 33 -80 57 -149 l43 -126 50
136 c27 75 53 142 59 149 5 6 30 12 54 12 32 0 44 -4 40 -12 -3 -7 -40 -100
-82 -206 l-77 -193 -46 3 -46 3 -73 185 c-40 102 -76 193 -79 203 -5 14 1 17
40 17 36 0 48 -5 60 -22z m6 -713 l0 -55 -265 0 -265 0 0 55 0 55 265 0 265 0
0 -55z"/>
</g>
</svg>
